<?xml version="1.0" encoding="UTF-8"?>
<svg xmlns="http://www.w3.org/2000/svg" id="Layer_1" data-name="Layer 1" viewBox="0 0 2925 3659">
  <defs>
    <style>.cls-1{fill:#fff;}.cls-2{fill:#0d2a84;}</style>
  </defs>
  <polygon class="cls-1" points="2072.24 735.42 2072.24 748.18 2039.49 748.18 2039.49 855.54 2023.81 855.54 2023.81 748.18 1990.89 748.18 1990.89 735.42 2072.24 735.42"></polygon>
  <polygon class="cls-1" points="2213.38 736.28 2213.38 855.54 2197.7 855.54 2197.7 766.62 2158.06 855.54 2147.03 855.54 2107.22 766.44 2107.22 855.54 2091.54 855.54 2091.54 736.28 2108.42 736.28 2152.54 834.86 2196.66 736.28 2213.38 736.28"></polygon>
  <path class="cls-1" d="M775.49,2728.36V2740H727.84V2777h38.68v11.64H727.84V2838H713.53V2728.36Z"></path>
  <path class="cls-1" d="M817.87,2754.31q7-4.09,17.06-4.09V2765h-3.78q-24.06,0-24.06,26.1V2838H792.78v-86.18h14.31v14A27.41,27.41,0,0,1,817.87,2754.31Z"></path>
  <path class="cls-1" d="M867.08,2833.88a39.21,39.21,0,0,1-15.41-15.65q-5.58-10.14-5.58-23.51a46.53,46.53,0,0,1,5.74-23.35,39.58,39.58,0,0,1,15.65-15.57,48.05,48.05,0,0,1,44.34,0,39.7,39.7,0,0,1,15.65,15.49q5.74,10.07,5.74,23.43a45.94,45.94,0,0,1-5.9,23.51,40.88,40.88,0,0,1-16,15.65,45.75,45.75,0,0,1-22.33,5.5A44.15,44.15,0,0,1,867.08,2833.88Zm36.41-10.7a27.46,27.46,0,0,0,10.93-10.85q4.16-7.23,4.17-17.61t-4.09-17.61a26.79,26.79,0,0,0-10.7-10.77,30.85,30.85,0,0,0-28.7,0,25.94,25.94,0,0,0-10.45,10.77q-3.93,7.23-3.93,17.61,0,10.55,3.85,17.77a25.62,25.62,0,0,0,10.3,10.77A28.91,28.91,0,0,0,889,2826.8,30.13,30.13,0,0,0,903.49,2823.18Z"></path>
  <path class="cls-1" d="M1073.64,2754.38a30.08,30.08,0,0,1,12.42,12.51q4.56,8.33,4.56,20.28V2838h-14.15v-48.75q0-12.9-6.37-19.74t-17.22-6.84q-11.16,0-17.77,7.16t-6.6,20.67V2838h-14.16v-48.75q0-12.9-6.37-19.74t-17.21-6.84q-11.17,0-17.77,7.16t-6.61,20.67V2838H952.08v-86.18h14.31v12.42a28.39,28.39,0,0,1,11.4-10.38,34.55,34.55,0,0,1,15.81-3.61,37.29,37.29,0,0,1,19.18,4.87,29.69,29.69,0,0,1,12.42,14.31,28.27,28.27,0,0,1,12-14.15,35.22,35.22,0,0,1,18.55-5A37.79,37.79,0,0,1,1073.64,2754.38Z"></path>
  <path class="cls-1" d="M1170.35,2728.36V2838H1156V2728.36Z"></path>
  <path class="cls-1" d="M1262.18,2759.73q9.75,9.53,9.75,27.44V2838h-14.15v-48.75q0-12.9-6.45-19.74t-17.61-6.84q-11.33,0-18,7.08t-6.69,20.6V2838h-14.31v-86.18H1209v12.27a28.48,28.48,0,0,1,11.56-10.23,35.89,35.89,0,0,1,16.12-3.61Q1252.43,2750.22,1262.18,2759.73Z"></path>
  <path class="cls-1" d="M1330.43,2763.58h-18.08V2838H1298v-74.39h-11.17v-11.79H1298v-6.13q0-14.47,7.47-21.15t24-6.69v11.95q-9.43,0-13.29,3.7t-3.85,12.19v6.13h18.08Z"></path>
  <path class="cls-1" d="M1362.75,2833.88a39.15,39.15,0,0,1-15.41-15.65q-5.6-10.14-5.59-23.51a46.64,46.64,0,0,1,5.74-23.35,39.65,39.65,0,0,1,15.65-15.57,48.07,48.07,0,0,1,44.35,0,39.68,39.68,0,0,1,15.64,15.49q5.74,10.07,5.74,23.43t-5.89,23.51a41,41,0,0,1-16,15.65,45.78,45.78,0,0,1-22.33,5.5A44.09,44.09,0,0,1,1362.75,2833.88Zm36.4-10.7a27.46,27.46,0,0,0,10.93-10.85q4.17-7.23,4.17-17.61t-4.09-17.61a26.83,26.83,0,0,0-10.69-10.77,30.85,30.85,0,0,0-28.7,0,26,26,0,0,0-10.46,10.77q-3.93,7.23-3.93,17.61,0,10.55,3.85,17.77a25.62,25.62,0,0,0,10.3,10.77,28.94,28.94,0,0,0,14.16,3.54A30.12,30.12,0,0,0,1399.15,2823.18Z"></path>
  <path class="cls-1" d="M1462.06,2721.6V2838h-14.32V2721.6Z"></path>
  <path class="cls-1" d="M1534.55,2838l-33.81-38.06V2838h-14.31V2721.6h14.31V2790l33.18-38.21h20l-40.57,42.93,40.73,43.25Z"></path>
  <path class="cls-1" d="M1580.15,2836a29.92,29.92,0,0,1-12.42-9.44,25,25,0,0,1-5-13.91h14.78a14.5,14.5,0,0,0,6,10.53q5.43,4.09,14.23,4.09,8.17,0,12.9-3.61a11.06,11.06,0,0,0,4.72-9.12,9,9,0,0,0-5-8.42q-5-2.74-15.56-5.42a114.31,114.31,0,0,1-15.65-5.11,27.7,27.7,0,0,1-10.38-7.71q-4.32-5.12-4.32-13.45a20.36,20.36,0,0,1,3.93-12.1,26.65,26.65,0,0,1,11.16-8.73,40.16,40.16,0,0,1,16.51-3.22q14.31,0,23.12,7.23t9.44,19.81h-14.31a14.84,14.84,0,0,0-5.43-10.85q-4.95-4.08-13.29-4.09-7.71,0-12.26,3.31a10.17,10.17,0,0,0-4.56,8.64,9.44,9.44,0,0,0,2.75,7,20,20,0,0,0,6.92,4.41,118.51,118.51,0,0,0,11.55,3.69,125.78,125.78,0,0,1,15.1,4.95,26.49,26.49,0,0,1,10,7.32c2.77,3.25,4.22,7.49,4.32,12.74a21.8,21.8,0,0,1-3.93,12.73,26.2,26.2,0,0,1-11.09,8.89,39.74,39.74,0,0,1-16.43,3.22A44.65,44.65,0,0,1,1580.15,2836Z"></path>
  <path class="cls-1" d="M1774.52,2760.12a34.24,34.24,0,0,0-13.21-14.86,38,38,0,0,0-20.13-5.26,40.86,40.86,0,0,0-20.68,5.26,37.3,37.3,0,0,0-14.47,15.1,51.46,51.46,0,0,0,0,45.37,37.34,37.34,0,0,0,14.47,15,40.86,40.86,0,0,0,20.68,5.26q16,0,26.42-9.59t12.11-26H1736v-11.63h59v11a54.43,54.43,0,0,1-8.49,24.76,52.53,52.53,0,0,1-19,17.77,53.33,53.33,0,0,1-26.26,6.53,55.24,55.24,0,0,1-27.84-7.16,52.48,52.48,0,0,1-19.89-19.89,60.45,60.45,0,0,1,0-57.63,52.34,52.34,0,0,1,19.89-20,55.34,55.34,0,0,1,27.84-7.16q17.44,0,30.9,8.65a49.54,49.54,0,0,1,19.58,24.37Z"></path>
  <path class="cls-1" d="M1838.91,2754.31q7-4.09,17.06-4.09V2765h-3.77q-24.06,0-24.06,26.1V2838h-14.31v-86.18h14.31v14A27.45,27.45,0,0,1,1838.91,2754.31Z"></path>
  <path class="cls-1" d="M1888.13,2833.88a39.21,39.21,0,0,1-15.41-15.65q-5.58-10.14-5.58-23.51a46.53,46.53,0,0,1,5.74-23.35,39.56,39.56,0,0,1,15.64-15.57,48.07,48.07,0,0,1,44.35,0,39.77,39.77,0,0,1,15.65,15.49q5.73,10.07,5.74,23.43a45.94,45.94,0,0,1-5.9,23.51,40.88,40.88,0,0,1-16,15.65,45.75,45.75,0,0,1-22.33,5.5A44.09,44.09,0,0,1,1888.13,2833.88Zm36.41-10.7a27.44,27.44,0,0,0,10.92-10.85q4.17-7.23,4.17-17.61t-4.09-17.61a26.77,26.77,0,0,0-10.69-10.77,30.85,30.85,0,0,0-28.7,0,26,26,0,0,0-10.46,10.77q-3.93,7.23-3.93,17.61,0,10.55,3.85,17.77a25.58,25.58,0,0,0,10.31,10.77,28.88,28.88,0,0,0,14.15,3.54A30.16,30.16,0,0,0,1924.54,2823.18Z"></path>
  <path class="cls-1" d="M2049.55,2751.79V2838h-14.31v-12.74a27.85,27.85,0,0,1-11.4,10.3,35.26,35.26,0,0,1-16.12,3.69,38.57,38.57,0,0,1-18.08-4.16,30.27,30.27,0,0,1-12.66-12.51q-4.63-8.33-4.64-20.28v-50.48h14.15v48.59q0,12.73,6.45,19.58t17.61,6.84q11.48,0,18.09-7.08t6.6-20.6v-47.33Z"></path>
  <path class="cls-1" d="M2100.74,2755.33a37.86,37.86,0,0,1,19.58-4.95,40.31,40.31,0,0,1,20.83,5.5,38.82,38.82,0,0,1,14.71,15.49q5.34,10,5.34,23.19a49.53,49.53,0,0,1-5.34,23.28,39.22,39.22,0,0,1-35.54,21.54,37.55,37.55,0,0,1-19.42-5,35.43,35.43,0,0,1-12.82-12.35v56.77h-14.31V2751.79h14.31v15.88A34.14,34.14,0,0,1,2100.74,2755.33Zm41.91,22.25a27.31,27.31,0,0,0-10.62-11,29.46,29.46,0,0,0-14.7-3.77,28.61,28.61,0,0,0-14.55,3.85,28.17,28.17,0,0,0-10.69,11.17,38,38,0,0,0,0,34,28.17,28.17,0,0,0,10.69,11.17,28.61,28.61,0,0,0,14.55,3.85A28.92,28.92,0,0,0,2132,2823a27.67,27.67,0,0,0,10.62-11.17,35.83,35.83,0,0,0,3.93-17.22A35,35,0,0,0,2142.65,2777.58Z"></path>
  <path class="cls-1" d="M179.8,2630.63V2312.51H313.86q50.89,0,89.76,20t60.44,55.89q21.58,35.92,21.58,83.17t-21.58,83.17q-21.58,35.9-60.44,55.89t-89.76,20Zm45.44-39.54h85.89q39.54,0,68.4-15t44.76-42q15.9-27,15.91-62.49,0-35.9-15.91-62.71T379.53,2367q-28.86-15-68.4-15H225.24Z"></path>
  <path class="cls-1" d="M502.46,2630.64l144.06-318.13h45L836,2630.64H788.31L659.7,2338h18.18L549.27,2630.64Zm61.35-79.54,12.27-36.36H755.14l13.18,36.36Z"></path>
  <polygon class="cls-1" points="930.56 2630.63 930.56 2352.05 821.49 2352.05 821.49 2312.51 1084.63 2312.51 1084.63 2352.05 975.55 2352.05 975.55 2630.63 930.56 2630.63"></polygon>
  <path class="cls-1" d="M1070.08,2630.64l144.06-318.13h45l144.52,318.13h-47.72L1227.32,2338h18.18l-128.61,292.68Zm61.35-79.54,12.27-36.36h179.06l13.18,36.36Z"></path>
  <polygon class="cls-1" points="1507.27 2630.63 1400.92 2312.51 1447.74 2312.51 1545.44 2606.09 1521.82 2606.09 1623.15 2312.51 1664.96 2312.51 1764.03 2606.09 1741.31 2606.09 1840.39 2312.51 1883.56 2312.51 1777.21 2630.63 1729.5 2630.63 1636.79 2358.41 1649.06 2358.41 1555.9 2630.63 1507.27 2630.63"></polygon>
  <path class="cls-1" d="M1880.83,2630.64l144.07-318.13h45l144.51,318.13h-47.72L2038.07,2338h18.18l-128.6,292.68Zm61.36-79.54,12.27-36.36h179.05l13.18,36.36Z"></path>
  <polygon class="cls-1" points="2319.38 2630.63 2319.38 2508.83 2329.84 2537.01 2193.05 2312.51 2241.67 2312.51 2356.65 2502.02 2330.29 2502.02 2445.72 2312.51 2490.71 2312.51 2354.38 2537.01 2364.37 2508.83 2364.37 2630.63 2319.38 2630.63"></polygon>
  <path class="cls-1" d="M2622.51,2634.26a216.83,216.83,0,0,1-69.54-11.13q-33.18-11.13-52.26-28.86l16.82-35.44q18.16,15.9,46.35,26.35a166.91,166.91,0,0,0,58.63,10.45q27.7,0,45-6.36t25.45-17.49a41.48,41.48,0,0,0,8.18-25.23q0-16.35-10.67-26.36t-27.73-16.13a308,308,0,0,0-37.49-10.68q-20.45-4.53-41.13-10.67a184.11,184.11,0,0,1-37.72-15.69,77.18,77.18,0,0,1-27.5-25.67q-10.44-16.12-10.44-41.58a83.49,83.49,0,0,1,12.95-45.22q12.93-20.67,40-33.18t68.85-12.5a212.77,212.77,0,0,1,55,7.27q27.28,7.29,47.27,20.91l-15,36.36a146,146,0,0,0-43.17-19.77,168.84,168.84,0,0,0-44.08-6.14q-26.82,0-44.08,6.82t-25.23,18.18a43.35,43.35,0,0,0-8,25.45q0,16.82,10.67,26.81t27.73,15.91a377,377,0,0,0,37.5,10.68q20.45,4.77,41.13,10.68a175.85,175.85,0,0,1,37.72,15.45,78,78,0,0,1,27.49,25.45q10.45,15.92,10.45,40.9a81.74,81.74,0,0,1-13.18,44.76q-13.18,20.68-40.67,33.17t-69.3,12.5"></path>
  <rect class="cls-1" x="179.34" y="2778.44" width="463" height="16.59"></rect>
  <rect class="cls-1" x="2216.81" y="2778.44" width="528.84" height="16.59"></rect>
  <path class="cls-1" d="M1409.8,731.08H825.46V2130.45H1409.8c919.8-15.64,919.5-1383.86,0-1399.37"></path>
  <path class="cls-2" d="M1387.39,1266.27h2.77v-.37h-2.77Zm0,0h2.77v-.37h-2.77Zm0,0h2.77v-.37h-2.77Zm0,0h2.77v-.37h-2.77Zm0,0h2.77v-.37h-2.77Zm0,0h2.77v-.37h-2.77Zm0,0h2.77v-.37h-2.77Zm0,0h2.77v-.37h-2.77Zm0,0h2.77v-.37h-2.77Zm0,0h2.77v-.37h-2.77Zm0,0h2.77v-.37h-2.77Zm0,0h2.77v-.37h-2.77Zm0,0h2.77v-.37h-2.77Zm0,0h2.77v-.37h-2.77Zm0,0h2.77v-.37h-2.77Zm0,0h2.77v-.37h-2.77Zm0,0h2.77v-.37h-2.77Zm0,0h2.77v-.37h-2.77Zm0,0h2.77v-.37h-2.77Zm0,0h2.77v-.37h-2.77Zm0,0h2.77v-.37h-2.77Zm0,0h2.77v-.37h-2.77Zm0,0h2.77v-.37h-2.77Zm0,0h2.77v-.37h-2.77Zm345.08,122.36V1334.8l-14.9-23.29h-36.64v-65h-21.51v14.4H1640v-15.08H1508.58v-83.55h38l26.58-29.79v-34.6c-89.84-60-340.92-31.12-444.32-37.33-7.38,194.61,123.88,364.79,304.1,411.7-98.69,78.53-149.41,202.31-142.19,328.76,78.5-.84,193.8,8.69,264.12-28.56v-46.22h26.76c-3.82-6.4-17.5-29.33-21.07-35.29h-24.72v-46.22l-17.37-26.51H1566v-71.86h41.41l23.36-43.51h-19.47v-51.48h51.73l9.64-19.72h76.69v-43Zm-214-123h28.32v28.24h-28.32Zm44.56,100.12H1535.7v-27.38h27.38Zm-63.65-269.19h35.72v35.72h-35.72Zm-19.1,119.63h14.09v14h-14.09Zm-4.57,96.78h19.09v19.16h-19.09Zm-78,225.93h29.6v29.6h-29.6Zm-60.87-272.59v-53.33h53.33v53h33.18v36h-36v-35.6Zm30.9,112.23h-19v-19h19Zm19.83.31h37.08v37.07h-37.08Zm49.5,256.14h16.79v16.88h-16.79ZM1404,1089.53h15.57V1105H1404Zm-.18,51h56.79v56.73h-56.79Zm65,328.64h-22.31v-22.31h22.31Zm-66.24-332.47h-26.59v-26.58h26.59Zm-51,451.12h24.1V1612h-24.1Zm85.89,111.91h-.31V1701h-28.73v.06h-19.78v-48.88h48.82Zm20.15,86h-18.19V1767.5h18.19Zm34.11-86H1456v-30.65h35.6Zm3.46-93.68h-32.38v-32.38h32.38Zm8.71-51.73h-51.66v-51.6h51.66Zm27.88,202.32h-18.17v-18.21h18.17Zm-62.61-379.37h51.66v51.61h-51.66Zm71.81,219.63h-22.37v-22.32h22.37Zm35.23-107.16h-29.66v-29.6h29.66Zm6.17-105H1563.2v-19.1h19.09Zm39.81-68.85h-53v-53h53Zm34.79,51.24h-28.74v-28.74h28.74Zm55.86,55.61H1657v-55.74h55.75ZM1390.17,1265.9h-2.78v.37h2.78Zm-2.78.37h2.77v-.37h-2.77Zm0,0h2.77v-.37h-2.77Zm0,0h2.77v-.37h-2.77Zm0,0h2.77v-.37h-2.77Zm0,0h2.77v-.37h-2.77Zm0,0h2.77v-.37h-2.77Zm0,0h2.77v-.37h-2.77Zm0,0h2.77v-.37h-2.77Zm0,0h2.77v-.37h-2.77Zm0,0h2.77v-.37h-2.77Zm0,0h2.77v-.37h-2.77Zm0,0h2.77v-.37h-2.77Zm0,0h2.77v-.37h-2.77Zm0,0h2.77v-.37h-2.77Zm0,0h2.77v-.37h-2.77Zm0,0h2.77v-.37h-2.77Zm0,0h2.77v-.37h-2.77Zm0,0h2.77v-.37h-2.77Zm0,0h2.77v-.37h-2.77Zm0,0h2.77v-.37h-2.77Zm0,0h2.77v-.37h-2.77Zm0,0h2.77v-.37h-2.77Z"></path>
  <path class="cls-2" d="M1352.23,1558.64c7.75-8.74,17.58-13.61,28.17-17.52,12.14-34.45,25.6-72.15,63.74-81.79a87.58,87.58,0,0,1-5.85-28.67c-21.07.66-42.86-6.38-58.35-21-42.1-1.18-79-41-74.14-83.81-94.24,10.29-122.64-126.51-30.66-153.57,26-6.54,47.68-32.69,73.36-37.14-1.51-30.16,15.26-61.06,45.32-74-4.86-.29-9.72-.5-14.62-.57H1083c-7.25,194.59,123.43,364.55,304.11,411.71-95.7,75.44-149.91,200-142.19,328.76,31.79-.73,142.76,2.17,172.34-2.74a84.93,84.93,0,0,1,.38-35.48c-29.43-19.24-45.32-48.9-51.72-82.72-41.94-24.76-48.84-88-13.69-121.41"></path>
  <rect class="cls-2" x="1835.02" y="1207.51" width="16.92" height="16.92"></rect>
  <rect class="cls-2" x="1747.86" y="1170.85" width="55.89" height="55.9"></rect>
  <rect class="cls-2" x="1675.48" y="1187.72" width="41.38" height="41.39"></rect>
  <rect class="cls-2" x="1683.71" y="1148.36" width="22.16" height="22.16"></rect>
  <rect class="cls-2" x="1592" y="1101.97" width="56.35" height="56.35"></rect>
  <rect class="cls-2" x="1648.22" y="1081.28" width="20.64" height="20.64"></rect>
  <rect class="cls-2" x="1597.1" y="1201" width="31.24" height="31.24"></rect>
  <rect class="cls-2" x="1628.37" y="1177.16" width="23.84" height="23.84"></rect>
  <rect class="cls-2" x="1726.23" y="1541.46" width="31.59" height="31.59"></rect>
  <rect class="cls-2" x="1696.7" y="1613.21" width="19.93" height="19.91"></rect>
  <rect class="cls-2" x="1622.57" y="1678.44" width="35.69" height="35.71"></rect>
  <rect class="cls-2" x="1576.76" y="1737.06" width="40.94" height="40.94"></rect>
  <rect class="cls-2" x="1588.12" y="1700.73" width="15.08" height="15.08"></rect>
  <rect class="cls-2" x="1548.81" y="1641.99" width="39.38" height="39.38"></rect>
  <rect class="cls-2" x="1600.62" y="1638.73" width="18.27" height="18.29"></rect>
  <rect class="cls-2" x="1660.31" y="1764.27" width="17.87" height="17.85"></rect>
  <rect class="cls-2" x="1813.11" y="1380.1" width="18.52" height="18.54"></rect>
  <rect class="cls-2" x="1757.82" y="1339.93" width="32.27" height="32.27"></rect>
  <rect class="cls-2" x="1782.21" y="1292.21" width="18.53" height="18.54"></rect>
  <rect class="cls-2" x="1603.1" y="1566.64" width="52.64" height="52.64"></rect>
  <rect class="cls-2" x="1659.86" y="1510.22" width="43.26" height="43.26"></rect>
  <rect class="cls-2" x="1772.55" y="1460.56" width="54.85" height="54.85"></rect>
  <rect class="cls-2" x="1713.32" y="1469.02" width="19.44" height="19.45"></rect>
  <rect class="cls-2" x="1630.45" y="1461.92" width="33.64" height="33.64"></rect>
  <rect class="cls-2" x="1694.88" y="1258.11" width="38.45" height="38.45"></rect>
  <rect class="cls-2" x="1534.22" y="1180.74" width="35.7" height="35.71"></rect>
  <path class="cls-2" d="M1749.37,1388.59h13.48l26.57,43H1744.3v-43Z"></path>
  <path class="cls-2" d="M1412.76,1458s-98.36,137.55-98.36,138.69,13.19,38.06,14.32,33.16,19.59-54.27,21.86-57.29c21.24-22.64,74.47-76.36,89-100.62l-13.2-13.57Z"></path>
  <rect class="cls-2" x="1387.37" y="1263.63" width="2.72" height="4.23"></rect>
</svg>
