<?xml version="1.0" encoding="UTF-8"?>
<svg xmlns="http://www.w3.org/2000/svg" width="36" height="36" viewBox="0 0 36 36">
  <g id="Group_14731" data-name="Group 14731" transform="translate(-1166 -2790)">
    <circle id="Ellipse_470" data-name="Ellipse 470" cx="18" cy="18" r="18" transform="translate(1166 2790)" fill="#fff"></circle>
    <g id="Group_5" data-name="Group 5" transform="translate(1174.458 2798)">
      <g id="Icon_feather-instagram" data-name="Icon feather-instagram" transform="translate(0 0)">
        <path id="Path_1" data-name="Path 1" d="M7.97,3h9.94a4.97,4.97,0,0,1,4.97,4.97v9.94a4.97,4.97,0,0,1-4.97,4.97H7.97A4.97,4.97,0,0,1,3,17.91V7.97A4.97,4.97,0,0,1,7.97,3Z" transform="translate(-3 -3)" fill="none" stroke="#000253" stroke-linecap="round" stroke-linejoin="round" stroke-width="2"></path>
        <path id="Path_2" data-name="Path 2" d="M19.974,15.328a3.976,3.976,0,1,1-3.35-3.35A3.976,3.976,0,0,1,19.974,15.328Z" transform="translate(-6.058 -6.014)" fill="none" stroke="#000253" stroke-linecap="round" stroke-linejoin="round" stroke-width="2"></path>
        <path id="Path_3" data-name="Path 3" d="M26.25,9.75h0" transform="translate(-10.843 -5.277)" fill="none" stroke="#000253" stroke-linecap="round" stroke-linejoin="round" stroke-width="2"></path>
      </g>
    </g>
  </g>
</svg>
